<svg xmlns="http://www.w3.org/2000/svg" version="1.1" xmlns:xlink="http://www.w3.org/1999/xlink" xmlns:svgjs="http://svgjs.dev/svgjs" width="315" height="315"><svg width="315" height="315" viewBox="0 0 315 315" fill="none" xmlns="http://www.w3.org/2000/svg">
<rect width="315" height="315" rx="46" fill="#2C2C2C"></rect>
<path fill-rule="evenodd" clip-rule="evenodd" d="M109.163 265.902C109.163 263.51 108.455 261.171 107.127 259.181C105.8 257.192 103.913 255.641 101.705 254.726C99.4975 253.81 97.0683 253.57 94.7247 254.037C92.3811 254.504 90.2283 255.656 88.5386 257.348C86.849 259.04 85.6983 261.195 85.2322 263.542C84.766 265.889 85.0052 268.321 85.9197 270.532C86.8341 272.742 88.3826 274.632 90.3694 275.961C92.3563 277.29 94.6921 278 97.0817 278C100.281 277.984 103.344 276.704 105.607 274.439C107.869 272.173 109.147 269.106 109.163 265.902ZM109.163 217.503C109.163 215.11 108.455 212.771 107.127 210.782C105.8 208.792 103.913 207.242 101.705 206.326C99.4975 205.41 97.0683 205.171 94.7247 205.638C92.3811 206.104 90.2283 207.257 88.5386 208.948C86.849 210.64 85.6983 212.796 85.2322 215.143C84.766 217.489 85.0052 219.922 85.9197 222.132C86.8341 224.343 88.3826 226.232 90.3694 227.562C92.3563 228.891 94.6921 229.6 97.0817 229.6C100.281 229.584 103.344 228.304 105.607 226.039C107.869 223.774 109.147 220.706 109.163 217.503ZM109.163 193.303C109.163 190.91 108.455 188.571 107.127 186.582C105.8 184.592 103.913 183.042 101.705 182.126C99.4975 181.211 97.0683 180.971 94.7247 181.438C92.3811 181.905 90.2283 183.057 88.5386 184.749C86.849 186.441 85.6983 188.596 85.2322 190.943C84.766 193.29 85.0052 195.722 85.9197 197.933C86.8341 200.143 88.3826 202.033 90.3694 203.362C92.3563 204.691 94.6921 205.401 97.0817 205.401C100.281 205.384 103.344 204.105 105.607 201.839C107.869 199.574 109.147 196.507 109.163 193.303ZM109.163 169.103C109.163 166.711 108.455 164.372 107.127 162.382C105.8 160.393 103.913 158.842 101.705 157.927C99.4975 157.011 97.0683 156.771 94.7247 157.238C92.3811 157.705 90.2283 158.857 88.5386 160.549C86.849 162.241 85.6983 164.396 85.2322 166.743C84.766 169.09 85.0052 171.522 85.9197 173.733C86.8341 175.943 88.3826 177.833 90.3694 179.162C92.3563 180.491 94.6921 181.201 97.0817 181.201C100.281 181.185 103.344 179.905 105.607 177.64C107.869 175.374 109.147 172.307 109.163 169.103ZM109.163 144.904C109.163 142.511 108.455 140.172 107.127 138.182C105.8 136.193 103.913 134.642 101.705 133.727C99.4975 132.811 97.0683 132.572 94.7247 133.038C92.3811 133.505 90.2283 134.657 88.5386 136.349C86.849 138.041 85.6983 140.197 85.2322 142.543C84.766 144.89 85.0052 147.323 85.9197 149.533C86.8341 151.744 88.3826 153.633 90.3694 154.962C92.3563 156.292 94.6921 157.001 97.0817 157.001C100.281 156.985 103.344 155.705 105.607 153.44C107.869 151.175 109.147 148.107 109.163 144.904ZM109.163 120.704C109.163 118.311 108.455 115.972 107.127 113.983C105.8 111.993 103.913 110.443 101.705 109.527C99.4975 108.611 97.0683 108.372 94.7247 108.839C92.3811 109.305 90.2283 110.458 88.5386 112.149C86.849 113.841 85.6983 115.997 85.2322 118.344C84.766 120.69 85.0052 123.123 85.9197 125.333C86.8341 127.544 88.3826 129.433 90.3694 130.763C92.3563 132.092 94.6921 132.802 97.0817 132.802C100.281 132.785 103.344 131.505 105.607 129.24C107.869 126.975 109.147 123.907 109.163 120.704ZM109.163 96.5034C109.163 94.1107 108.455 91.7718 107.127 89.7823C105.8 87.7929 103.913 86.2423 101.705 85.3266C99.4975 84.411 97.0683 84.1714 94.7247 84.6382C92.3811 85.105 90.2283 86.2572 88.5386 87.9491C86.849 89.641 85.6983 91.7966 85.2322 94.1433C84.766 96.49 85.0052 98.9225 85.9197 101.133C86.8341 103.344 88.3826 105.233 90.3694 106.562C92.3563 107.892 94.6921 108.601 97.0817 108.601C100.281 108.585 103.344 107.305 105.607 105.04C107.869 102.774 109.147 99.7069 109.163 96.5034ZM109.163 72.3037C109.163 69.911 108.455 67.572 107.127 65.5826C105.8 63.5931 103.913 62.0425 101.705 61.1269C99.4975 60.2112 97.0683 59.9717 94.7247 60.4384C92.3811 60.9052 90.2283 62.0574 88.5386 63.7493C86.849 65.4412 85.6983 67.5968 85.2322 69.9435C84.766 72.2903 85.0052 74.7227 85.9197 76.9333C86.8341 79.1438 88.3826 81.0332 90.3694 82.3625C92.3563 83.6919 94.6921 84.4014 97.0817 84.4014C100.281 84.385 103.344 83.1052 105.607 80.8399C107.869 78.5747 109.147 75.5071 109.163 72.3037ZM109.163 48.1039C109.163 45.7112 108.455 43.3723 107.127 41.3828C105.8 39.3934 103.913 37.8428 101.705 36.9271C99.4975 36.0115 97.0683 35.7719 94.7247 36.2387C92.3811 36.7055 90.2283 37.8577 88.5386 39.5496C86.849 41.2415 85.6983 43.3971 85.2322 45.7438C84.766 48.0905 85.0052 50.523 85.9197 52.7335C86.8341 54.9441 88.3826 56.8335 90.3694 58.1628C92.3563 59.4921 94.6921 60.2016 97.0817 60.2016C100.281 60.1852 103.344 58.9054 105.607 56.6402C107.869 54.375 109.147 51.3074 109.163 48.1039ZM109.163 241.703C109.163 239.31 108.455 236.971 107.127 234.981C105.8 232.992 103.913 231.441 101.705 230.526C99.4975 229.61 97.0683 229.371 94.7247 229.837C92.3811 230.304 90.2283 231.456 88.5386 233.148C86.849 234.84 85.6983 236.996 85.2322 239.342C84.766 241.689 85.0052 244.122 85.9197 246.332C86.8341 248.543 88.3826 250.432 90.3694 251.761C92.3563 253.091 94.6921 253.8 97.0817 253.8C100.281 253.784 103.344 252.504 105.607 250.239C107.869 247.974 109.147 244.906 109.163 241.703ZM133.331 48.1039C133.331 45.7112 132.622 43.3723 131.295 41.3828C129.967 39.3934 128.08 37.8428 125.873 36.9271C123.665 36.0115 121.236 35.7719 118.892 36.2387C116.549 36.7055 114.396 37.8577 112.706 39.5496C111.017 41.2415 109.866 43.3971 109.4 45.7438C108.934 48.0905 109.173 50.523 110.087 52.7335C111.002 54.9441 112.55 56.8335 114.537 58.1628C116.524 59.4921 118.86 60.2016 121.249 60.2016C124.449 60.1852 127.512 58.9054 129.774 56.6402C132.037 54.375 133.315 51.3074 133.331 48.1039ZM157.494 48.1039C157.494 45.7112 156.786 43.3723 155.458 41.3828C154.131 39.3934 152.244 37.8428 150.036 36.9271C147.829 36.0115 145.399 35.7719 143.056 36.2387C140.712 36.7055 138.559 37.8577 136.87 39.5496C135.18 41.2415 134.029 43.3971 133.563 45.7438C133.097 48.0905 133.336 50.523 134.251 52.7335C135.165 54.9441 136.714 56.8335 138.701 58.1628C140.687 59.4921 143.023 60.2016 145.413 60.2016C148.612 60.1861 151.677 58.9066 153.94 56.6413C156.203 54.376 157.481 51.3079 157.498 48.1039H157.494ZM181.664 48.1039C181.665 45.7104 180.956 43.3704 179.629 41.3799C178.301 39.3895 176.414 37.838 174.205 36.9217C171.997 36.0055 169.567 35.7656 167.222 36.2324C164.878 36.6992 162.724 37.8517 161.034 39.5443C159.344 41.2368 158.193 43.3932 157.726 45.7408C157.26 48.0884 157.5 50.5218 158.415 52.733C159.33 54.9443 160.879 56.8342 162.867 58.1636C164.855 59.493 167.192 60.2022 169.582 60.2016C172.782 60.1861 175.846 58.9066 178.109 56.6413C180.372 54.376 181.651 51.3079 181.667 48.1039H181.664ZM205.834 48.1039C205.834 45.7106 205.126 43.3709 203.799 41.3806C202.471 39.3903 200.584 37.8388 198.376 36.9223C196.168 36.0059 193.739 35.7656 191.394 36.2319C189.05 36.6982 186.896 37.8502 185.206 39.542C183.515 41.2339 182.364 43.3898 181.897 45.737C181.43 48.0842 181.669 50.5173 182.583 52.7287C183.497 54.9401 185.045 56.8304 187.032 58.1605C189.019 59.4907 191.356 60.201 193.746 60.2016C196.946 60.1866 200.011 58.9074 202.275 56.6422C204.539 54.377 205.819 51.3087 205.837 48.1039H205.834ZM229.997 96.5034C229.997 94.1107 229.288 91.7718 227.961 89.7823C226.633 87.7929 224.746 86.2423 222.539 85.3266C220.331 84.411 217.902 84.1714 215.558 84.6382C213.215 85.105 211.062 86.2572 209.372 87.9491C207.683 89.641 206.532 91.7966 206.066 94.1433C205.6 96.49 205.839 98.9225 206.753 101.133C207.668 103.344 209.216 105.233 211.203 106.562C213.19 107.892 215.526 108.601 217.915 108.601C221.115 108.586 224.179 107.306 226.442 105.041C228.705 102.775 229.984 99.7074 230 96.5034H229.997ZM229.997 72.3037C229.997 69.911 229.288 67.572 227.961 65.5826C226.633 63.5931 224.746 62.0425 222.539 61.1269C220.331 60.2112 217.902 59.9717 215.558 60.4384C213.215 60.9052 211.062 62.0574 209.372 63.7493C207.683 65.4412 206.532 67.5968 206.066 69.9435C205.6 72.2903 205.839 74.7227 206.753 76.9333C207.668 79.1438 209.216 81.0332 211.203 82.3625C213.19 83.6919 215.526 84.4014 217.915 84.4014C221.115 84.3858 224.179 83.1063 226.442 80.841C228.705 78.5757 229.984 75.5077 230 72.3037H229.997ZM133.331 169.103C133.331 166.711 132.622 164.372 131.295 162.382C129.967 160.393 128.08 158.842 125.873 157.927C123.665 157.011 121.236 156.771 118.892 157.238C116.549 157.705 114.396 158.857 112.706 160.549C111.017 162.241 109.866 164.396 109.4 166.743C108.934 169.09 109.173 171.522 110.087 173.733C111.002 175.943 112.55 177.833 114.537 179.162C116.524 180.491 118.86 181.201 121.249 181.201C124.449 181.185 127.512 179.905 129.774 177.64C132.037 175.374 133.315 172.307 133.331 169.103ZM157.494 193.303C157.494 190.91 156.786 188.571 155.458 186.582C154.131 184.592 152.244 183.042 150.036 182.126C147.829 181.211 145.399 180.971 143.056 181.438C140.712 181.905 138.559 183.057 136.87 184.749C135.18 186.441 134.029 188.596 133.563 190.943C133.097 193.29 133.336 195.722 134.251 197.933C135.165 200.143 136.714 202.033 138.701 203.362C140.687 204.691 143.023 205.401 145.413 205.401C148.612 205.385 151.677 204.106 153.94 201.84C156.203 199.575 157.481 196.507 157.498 193.303H157.494ZM181.664 193.303C181.665 190.909 180.956 188.569 179.629 186.579C178.301 184.589 176.414 183.037 174.205 182.121C171.997 181.205 169.567 180.965 167.222 181.431C164.878 181.898 162.724 183.051 161.034 184.743C159.344 186.436 158.193 188.592 157.726 190.94C157.26 193.288 157.5 195.721 158.415 197.932C159.33 200.143 160.879 202.033 162.867 203.363C164.855 204.692 167.192 205.401 169.582 205.401C172.782 205.385 175.846 204.106 178.109 201.84C180.372 199.575 181.651 196.507 181.667 193.303H181.664ZM205.834 193.303C205.834 190.91 205.126 188.57 203.799 186.58C202.471 184.589 200.584 183.038 198.376 182.121C196.168 181.205 193.739 180.965 191.394 181.431C189.05 181.897 186.896 183.049 185.206 184.741C183.515 186.433 182.364 188.589 181.897 190.936C181.43 193.283 181.669 195.716 182.583 197.928C183.497 200.139 185.045 202.03 187.032 203.36C189.019 204.69 191.356 205.4 193.746 205.401C196.946 205.386 200.011 204.107 202.275 201.841C204.539 199.576 205.819 196.508 205.837 193.303H205.834ZM229.997 169.103C229.997 166.711 229.288 164.372 227.961 162.382C226.633 160.393 224.746 158.842 222.539 157.927C220.331 157.011 217.902 156.771 215.558 157.238C213.215 157.705 211.062 158.857 209.372 160.549C207.683 162.241 206.532 164.396 206.066 166.743C205.6 169.09 205.839 171.522 206.753 173.733C207.668 175.943 209.216 177.833 211.203 179.162C213.19 180.491 215.526 181.201 217.915 181.201C221.115 181.185 224.179 179.906 226.442 177.641C228.705 175.375 229.984 172.307 230 169.103H229.997ZM229.997 144.904C229.997 142.511 229.288 140.172 227.961 138.182C226.633 136.193 224.746 134.642 222.539 133.727C220.331 132.811 217.902 132.572 215.558 133.038C213.215 133.505 211.062 134.657 209.372 136.349C207.683 138.041 206.532 140.197 206.066 142.543C205.6 144.89 205.839 147.323 206.753 149.533C207.668 151.744 209.216 153.633 211.203 154.962C213.19 156.292 215.526 157.001 217.915 157.001C221.115 156.986 224.179 155.706 226.442 153.441C228.705 151.176 229.984 148.108 230 144.904H229.997ZM229.997 120.704C229.997 118.311 229.288 115.972 227.961 113.983C226.633 111.993 224.746 110.443 222.539 109.527C220.331 108.611 217.902 108.372 215.558 108.839C213.215 109.305 211.062 110.458 209.372 112.149C207.683 113.841 206.532 115.997 206.066 118.344C205.6 120.69 205.839 123.123 206.753 125.333C207.668 127.544 209.216 129.433 211.203 130.763C213.19 132.092 215.526 132.802 217.915 132.802C221.115 132.786 224.179 131.506 226.442 129.241C228.705 126.976 229.984 123.908 230 120.704H229.997Z" fill="#6AF812"></path>
</svg><style>@media (prefers-color-scheme: light) { :root { filter: none; } }
@media (prefers-color-scheme: dark) { :root { filter: none; } }
</style></svg>