<svg width="72" height="72" viewBox="0 0 72 72" fill="none" xmlns="http://www.w3.org/2000/svg">
<g id="upload_file_24dp_FFFFFF_FILL0_wght400_GRAD0_opsz24 1">
<path id="Vector" d="M33.0417 56.7087H38.9584V44.3576L43.6917 49.0909L47.8334 44.8753L36 33.042L24.1667 44.8753L28.3823 49.017L33.0417 44.3576V56.7087ZM18.25 65.5836C16.623 65.5836 15.2301 65.0043 14.0714 63.8456C12.9127 62.687 12.3334 61.2941 12.3334 59.667V12.3337C12.3334 10.7066 12.9127 9.31369 14.0714 8.15501C15.2301 6.99633 16.623 6.41699 18.25 6.41699H41.9167L59.6667 24.167V59.667C59.6667 61.2941 59.0874 62.687 57.9287 63.8456C56.77 65.0043 55.3771 65.5836 53.75 65.5836H18.25ZM38.9584 27.1253V12.3337H18.25V59.667H53.75V27.1253H38.9584Z" fill="#1E1E1E"/>
</g>
</svg>
