<svg width="122" height="56" viewBox="0 0 122 56" fill="none" xmlns="http://www.w3.org/2000/svg">
<g id="&#208;&#155;&#209;&#141;&#208;&#189;&#208;&#180;&#208;&#184;&#208;&#189;&#208;&#179; (Desktop 1920px)">
<rect width="1920" height="2384" transform="translate(-400 -28)" fill="#202020"/>
<g id="Header">
<mask id="path-1-inside-1_0_1" fill="white">
<path d="M-400 -28H1520V84H-400V-28Z"/>
</mask>
<path d="M-400 -28H1520V84H-400V-28Z" fill="#202020"/>
<path d="M1520 83H-400V85H1520V83Z" fill="#6AF812" mask="url(#path-1-inside-1_0_1)"/>
<g id="Container">
<g id="Logo" clip-path="url(#clip0_0_1)">
<g id="&#208;&#156;&#208;&#190;&#208;&#189;&#209;&#130;&#208;&#176;&#208;&#182;&#208;&#189;&#208;&#176;&#209;&#143; &#208;&#190;&#208;&#177;&#208;&#187;&#208;&#176;&#209;&#129;&#209;&#130;&#209;&#140; 1">
<path id="&#208;&#159;&#209;&#128;&#209;&#143;&#208;&#188;&#208;&#190;&#209;&#131;&#208;&#179;&#208;&#190;&#208;&#187;&#209;&#140;&#208;&#189;&#208;&#184;&#208;&#186; 1" d="M116.261 0.5H5.73925C2.56955 0.5 0 3.06504 0 6.22917V49.7708C0 52.935 2.56955 55.5 5.73925 55.5H116.261C119.43 55.5 122 52.935 122 49.7708V6.22917C122 3.06504 119.43 0.5 116.261 0.5Z" fill="#2C2C2C"/>
<path id="PICTO" fill-rule="evenodd" clip-rule="evenodd" d="M15.0375 42.3137C15.0375 41.9996 14.9442 41.6926 14.7694 41.4315C14.5947 41.1704 14.3463 40.9669 14.0556 40.8467C13.765 40.7266 13.4452 40.6951 13.1366 40.7564C12.8281 40.8176 12.5446 40.9689 12.3222 41.1909C12.0997 41.413 11.9483 41.6959 11.8869 42.0039C11.8255 42.3119 11.857 42.6311 11.9774 42.9213C12.0978 43.2114 12.3017 43.4594 12.5632 43.6339C12.8248 43.8083 13.1323 43.9015 13.4469 43.9015C13.8681 43.8993 14.2714 43.7313 14.5693 43.434C14.8671 43.1367 15.0354 42.7341 15.0375 42.3137ZM15.0375 35.9613C15.0375 35.6473 14.9442 35.3403 14.7694 35.0792C14.5947 34.8181 14.3463 34.6146 14.0556 34.4944C13.765 34.3742 13.4452 34.3428 13.1366 34.404C12.8281 34.4653 12.5446 34.6165 12.3222 34.8386C12.0997 35.0606 11.9483 35.3436 11.8869 35.6516C11.8255 35.9596 11.857 36.2788 11.9774 36.5689C12.0978 36.8591 12.3017 37.1071 12.5632 37.2815C12.8248 37.456 13.1323 37.5491 13.4469 37.5491C13.8681 37.547 14.2714 37.379 14.5693 37.0817C14.8671 36.7844 15.0354 36.3818 15.0375 35.9613ZM15.0375 32.7852C15.0375 32.4711 14.9442 32.1641 14.7694 31.903C14.5947 31.6419 14.3463 31.4384 14.0556 31.3182C13.765 31.198 13.4452 31.1666 13.1366 31.2279C12.8281 31.2891 12.5446 31.4404 12.3222 31.6624C12.0997 31.8845 11.9483 32.1674 11.8869 32.4754C11.8255 32.7834 11.857 33.1026 11.9774 33.3928C12.0978 33.6829 12.3017 33.9309 12.5632 34.1054C12.8248 34.2798 13.1323 34.373 13.4469 34.373C13.8681 34.3708 14.2714 34.2028 14.5693 33.9055C14.8671 33.6082 15.0354 33.2056 15.0375 32.7852ZM15.0375 29.609C15.0375 29.295 14.9442 28.988 14.7694 28.7269C14.5947 28.4657 14.3463 28.2622 14.0556 28.1421C13.765 28.0219 13.4452 27.9904 13.1366 28.0517C12.8281 28.113 12.5446 28.2642 12.3222 28.4862C12.0997 28.7083 11.9483 28.9912 11.8869 29.2992C11.8255 29.6072 11.857 29.9265 11.9774 30.2166C12.0978 30.5067 12.3017 30.7547 12.5632 30.9292C12.8248 31.1037 13.1323 31.1968 13.4469 31.1968C13.8681 31.1946 14.2714 31.0267 14.5693 30.7294C14.8671 30.4321 15.0354 30.0294 15.0375 29.609ZM15.0375 26.4328C15.0375 26.1188 14.9442 25.8118 14.7694 25.5507C14.5947 25.2896 14.3463 25.0861 14.0556 24.9659C13.765 24.8457 13.4452 24.8143 13.1366 24.8755C12.8281 24.9368 12.5446 25.088 12.3222 25.3101C12.0997 25.5321 11.9483 25.8151 11.8869 26.1231C11.8255 26.4311 11.857 26.7503 11.9774 27.0404C12.0978 27.3306 12.3017 27.5786 12.5632 27.753C12.8248 27.9275 13.1323 28.0206 13.4469 28.0206C13.8681 28.0185 14.2714 27.8505 14.5693 27.5532C14.8671 27.2559 15.0354 26.8533 15.0375 26.4328ZM15.0375 23.2567C15.0375 22.9426 14.9442 22.6356 14.7694 22.3745C14.5947 22.1134 14.3463 21.9099 14.0556 21.7897C13.765 21.6695 13.4452 21.6381 13.1366 21.6994C12.8281 21.7606 12.5446 21.9119 12.3222 22.1339C12.0997 22.356 11.9483 22.6389 11.8869 22.9469C11.8255 23.2549 11.857 23.5741 11.9774 23.8643C12.0978 24.1544 12.3017 24.4024 12.5632 24.5769C12.8248 24.7513 13.1323 24.8445 13.4469 24.8445C13.8681 24.8423 14.2714 24.6743 14.5693 24.377C14.8671 24.0797 15.0354 23.6771 15.0375 23.2567ZM15.0375 20.0804C15.0375 19.7664 14.9442 19.4594 14.7694 19.1983C14.5947 18.9372 14.3463 18.7336 14.0556 18.6135C13.765 18.4933 13.4452 18.4618 13.1366 18.5231C12.8281 18.5844 12.5446 18.7356 12.3222 18.9577C12.0997 19.1797 11.9483 19.4626 11.8869 19.7706C11.8255 20.0786 11.857 20.3979 11.9774 20.688C12.0978 20.9782 12.3017 21.2261 12.5632 21.4006C12.8248 21.5751 13.1323 21.6682 13.4469 21.6682C13.8681 21.666 14.2714 21.4981 14.5693 21.2008C14.8671 20.9035 15.0354 20.5008 15.0375 20.0804ZM15.0375 16.9042C15.0375 16.5902 14.9442 16.2832 14.7694 16.0221C14.5947 15.761 14.3463 15.5575 14.0556 15.4373C13.765 15.3171 13.4452 15.2857 13.1366 15.3469C12.8281 15.4082 12.5446 15.5594 12.3222 15.7815C12.0997 16.0035 11.9483 16.2865 11.8869 16.5945C11.8255 16.9025 11.857 17.2217 11.9774 17.5119C12.0978 17.802 12.3017 18.05 12.5632 18.2244C12.8248 18.3989 13.1323 18.492 13.4469 18.492C13.8681 18.4899 14.2714 18.3219 14.5693 18.0246C14.8671 17.7273 15.0354 17.3247 15.0375 16.9042ZM15.0375 13.7281C15.0375 13.414 14.9442 13.107 14.7694 12.8459C14.5947 12.5848 14.3463 12.3813 14.0556 12.2611C13.765 12.141 13.4452 12.1095 13.1366 12.1708C12.8281 12.232 12.5446 12.3833 12.3222 12.6053C12.0997 12.8274 11.9483 13.1103 11.8869 13.4183C11.8255 13.7263 11.857 14.0456 11.9774 14.3357C12.0978 14.6258 12.3017 14.8738 12.5632 15.0483C12.8248 15.2227 13.1323 15.3159 13.4469 15.3159C13.8681 15.3137 14.2714 15.1457 14.5693 14.8484C14.8671 14.5511 15.0354 14.1485 15.0375 13.7281ZM15.0375 39.1375C15.0375 38.8235 14.9442 38.5165 14.7694 38.2554C14.5947 37.9942 14.3463 37.7907 14.0556 37.6706C13.765 37.5504 13.4452 37.5189 13.1366 37.5802C12.8281 37.6415 12.5446 37.7927 12.3222 38.0147C12.0997 38.2368 11.9483 38.5197 11.8869 38.8277C11.8255 39.1357 11.857 39.455 11.9774 39.7451C12.0978 40.0352 12.3017 40.2832 12.5632 40.4577C12.8248 40.6322 13.1323 40.7253 13.4469 40.7253C13.8681 40.7231 14.2714 40.5552 14.5693 40.2579C14.8671 39.9606 15.0354 39.5579 15.0375 39.1375ZM18.2193 13.7281C18.2193 13.414 18.126 13.107 17.9512 12.8459C17.7764 12.5848 17.528 12.3813 17.2374 12.2611C16.9467 12.141 16.6269 12.1095 16.3184 12.1708C16.0098 12.232 15.7264 12.3833 15.504 12.6053C15.2815 12.8274 15.13 13.1103 15.0686 13.4183C15.0073 13.7263 15.0388 14.0456 15.1592 14.3357C15.2795 14.6258 15.4834 14.8738 15.745 15.0483C16.0066 15.2227 16.3141 15.3159 16.6287 15.3159C17.0499 15.3137 17.4532 15.1457 17.751 14.8484C18.0488 14.5511 18.2171 14.1485 18.2193 13.7281ZM21.4004 13.7281C21.4004 13.414 21.3072 13.107 21.1324 12.8459C20.9576 12.5848 20.7092 12.3813 20.4185 12.2611C20.1279 12.141 19.8081 12.1095 19.4995 12.1708C19.191 12.232 18.9076 12.3833 18.6851 12.6053C18.4627 12.8274 18.3112 13.1103 18.2498 13.4183C18.1885 13.7263 18.2199 14.0456 18.3403 14.3357C18.4607 14.6258 18.6646 14.8738 18.9262 15.0483C19.1877 15.2227 19.4953 15.3159 19.8099 15.3159C20.2311 15.3138 20.6345 15.1459 20.9325 14.8486C21.2304 14.5513 21.3987 14.1486 21.4009 13.7281H21.4004ZM24.5824 13.7281C24.5825 13.4139 24.4893 13.1068 24.3145 12.8456C24.1397 12.5843 23.8912 12.3807 23.6005 12.2604C23.3098 12.1402 22.9898 12.1087 22.6812 12.1699C22.3725 12.2312 22.089 12.3825 21.8664 12.6046C21.6439 12.8268 21.4924 13.1098 21.431 13.4179C21.3696 13.726 21.4012 14.0454 21.5216 14.3356C21.6421 14.6259 21.8461 14.8739 22.1078 15.0484C22.3695 15.2229 22.6772 15.3159 22.9919 15.3159C23.4131 15.3138 23.8165 15.1459 24.1145 14.8486C24.4124 14.5513 24.5807 14.1486 24.5829 13.7281H24.5824ZM27.7645 13.7281C27.7645 13.4139 27.6713 13.1069 27.4965 12.8456C27.3218 12.5844 27.0734 12.3808 26.7827 12.2605C26.492 12.1402 26.1721 12.1087 25.8635 12.1699C25.5548 12.2311 25.2713 12.3823 25.0487 12.6043C24.8262 12.8264 24.6746 13.1093 24.6131 13.4174C24.5516 13.7255 24.5831 14.0448 24.7034 14.3351C24.8237 14.6253 25.0276 14.8734 25.2892 15.048C25.5508 15.2226 25.8584 15.3158 26.173 15.3159C26.5944 15.3139 26.9979 15.146 27.296 14.8487C27.5941 14.5514 27.7626 14.1487 27.7649 13.7281H27.7645ZM30.9456 20.0804C30.9456 19.7664 30.8524 19.4594 30.6776 19.1983C30.5028 18.9372 30.2544 18.7336 29.9637 18.6135C29.6731 18.4933 29.3533 18.4618 29.0447 18.5231C28.7362 18.5844 28.4528 18.7356 28.2303 18.9577C28.0079 19.1797 27.8564 19.4626 27.795 19.7706C27.7336 20.0786 27.7651 20.3979 27.8855 20.688C28.0059 20.9782 28.2098 21.2261 28.4714 21.4006C28.7329 21.5751 29.0405 21.6682 29.355 21.6682C29.7763 21.6662 30.1797 21.4982 30.4776 21.2009C30.7756 20.9036 30.9439 20.5009 30.946 20.0804H30.9456ZM30.9456 16.9042C30.9456 16.5902 30.8524 16.2832 30.6776 16.0221C30.5028 15.761 30.2544 15.5575 29.9637 15.4373C29.6731 15.3171 29.3533 15.2857 29.0447 15.3469C28.7362 15.4082 28.4528 15.5594 28.2303 15.7815C28.0079 16.0035 27.8564 16.2865 27.795 16.5945C27.7336 16.9025 27.7651 17.2217 27.8855 17.5119C28.0059 17.802 28.2098 18.05 28.4714 18.2244C28.7329 18.3989 29.0405 18.492 29.355 18.492C29.7763 18.49 30.1797 18.3221 30.4776 18.0247C30.7756 17.7274 30.9439 17.3248 30.946 16.9042H30.9456ZM18.2193 29.609C18.2193 29.295 18.126 28.988 17.9512 28.7269C17.7764 28.4657 17.528 28.2622 17.2374 28.1421C16.9467 28.0219 16.6269 27.9904 16.3184 28.0517C16.0098 28.113 15.7264 28.2642 15.504 28.4862C15.2815 28.7083 15.13 28.9912 15.0686 29.2992C15.0073 29.6072 15.0388 29.9265 15.1592 30.2166C15.2795 30.5067 15.4834 30.7547 15.745 30.9292C16.0066 31.1037 16.3141 31.1968 16.6287 31.1968C17.0499 31.1946 17.4532 31.0267 17.751 30.7294C18.0488 30.4321 18.2171 30.0294 18.2193 29.609ZM21.4004 32.7852C21.4004 32.4711 21.3072 32.1641 21.1324 31.903C20.9576 31.6419 20.7092 31.4384 20.4185 31.3182C20.1279 31.198 19.8081 31.1666 19.4995 31.2279C19.191 31.2891 18.9076 31.4404 18.6851 31.6624C18.4627 31.8845 18.3112 32.1674 18.2498 32.4754C18.1885 32.7834 18.2199 33.1026 18.3403 33.3928C18.4607 33.6829 18.6646 33.9309 18.9262 34.1054C19.1877 34.2798 19.4953 34.373 19.8099 34.373C20.2311 34.3709 20.6345 34.203 20.9325 33.9057C21.2304 33.6083 21.3987 33.2057 21.4009 32.7852H21.4004ZM24.5824 32.7852C24.5825 32.471 24.4893 32.1639 24.3145 31.9026C24.1397 31.6414 23.8912 31.4378 23.6005 31.3175C23.3098 31.1973 22.9898 31.1658 22.6812 31.227C22.3725 31.2883 22.089 31.4396 21.8664 31.6617C21.6439 31.8839 21.4924 32.1669 21.431 32.475C21.3696 32.7831 21.4012 33.1025 21.5216 33.3927C21.6421 33.6829 21.8461 33.931 22.1078 34.1055C22.3695 34.2799 22.6772 34.373 22.9919 34.373C23.4131 34.3709 23.8165 34.203 24.1145 33.9057C24.4124 33.6083 24.5807 33.2057 24.5829 32.7852H24.5824ZM27.7645 32.7852C27.7645 32.471 27.6713 32.164 27.4965 31.9027C27.3218 31.6415 27.0734 31.4379 26.7827 31.3176C26.492 31.1973 26.1721 31.1658 25.8635 31.227C25.5548 31.2882 25.2713 31.4394 25.0487 31.6614C24.8262 31.8835 24.6746 32.1664 24.6131 32.4745C24.5516 32.7826 24.5831 33.1019 24.7034 33.3922C24.8237 33.6824 25.0276 33.9305 25.2892 34.1051C25.5508 34.2796 25.8584 34.3729 26.173 34.373C26.5944 34.371 26.9979 34.2031 27.296 33.9058C27.5941 33.6085 27.7626 33.2058 27.7649 32.7852H27.7645ZM30.9456 29.609C30.9456 29.295 30.8524 28.988 30.6776 28.7269C30.5028 28.4657 30.2544 28.2622 29.9637 28.1421C29.6731 28.0219 29.3533 27.9904 29.0447 28.0517C28.7362 28.113 28.4528 28.2642 28.2303 28.4862C28.0079 28.7083 27.8564 28.9912 27.795 29.2992C27.7336 29.6072 27.7651 29.9265 27.8855 30.2166C28.0059 30.5067 28.2098 30.7547 28.4714 30.9292C28.7329 31.1037 29.0405 31.1968 29.355 31.1968C29.7763 31.1947 30.1797 31.0268 30.4776 30.7295C30.7756 30.4322 30.9439 30.0295 30.946 29.609H30.9456ZM30.9456 26.4328C30.9456 26.1188 30.8524 25.8118 30.6776 25.5507C30.5028 25.2896 30.2544 25.0861 29.9637 24.9659C29.6731 24.8457 29.3533 24.8143 29.0447 24.8755C28.7362 24.9368 28.4528 25.088 28.2303 25.3101C28.0079 25.5321 27.8564 25.8151 27.795 26.1231C27.7336 26.4311 27.7651 26.7503 27.8855 27.0404C28.0059 27.3306 28.2098 27.5786 28.4714 27.753C28.7329 27.9275 29.0405 28.0206 29.355 28.0206C29.7763 28.0186 30.1797 27.8506 30.4776 27.5533C30.7756 27.256 30.9439 26.8533 30.946 26.4328H30.9456ZM30.9456 23.2567C30.9456 22.9426 30.8524 22.6356 30.6776 22.3745C30.5028 22.1134 30.2544 21.9099 29.9637 21.7897C29.6731 21.6695 29.3533 21.6381 29.0447 21.6994C28.7362 21.7606 28.4528 21.9119 28.2303 22.1339C28.0079 22.356 27.8564 22.6389 27.795 22.9469C27.7336 23.2549 27.7651 23.5741 27.8855 23.8643C28.0059 24.1544 28.2098 24.4024 28.4714 24.5769C28.7329 24.7513 29.0405 24.8445 29.355 24.8445C29.7763 24.8424 30.1797 24.6745 30.4776 24.3772C30.7756 24.0798 30.9439 23.6772 30.946 23.2567H30.9456ZM38.2337 42.3137C38.2337 41.9996 38.1404 41.6926 37.9656 41.4315C37.7908 41.1704 37.5424 40.9669 37.2518 40.8467C36.9611 40.7266 36.6413 40.6951 36.3328 40.7564C36.0242 40.8176 35.7408 40.9689 35.5184 41.1909C35.2959 41.413 35.1444 41.6959 35.083 42.0039C35.0217 42.3119 35.0532 42.6311 35.1735 42.9213C35.2939 43.2114 35.4978 43.4594 35.7594 43.6339C36.021 43.8083 36.3285 43.9015 36.6431 43.9015C37.0643 43.8994 37.4678 43.7315 37.7657 43.4342C38.0636 43.1369 38.2319 42.7342 38.2341 42.3137H38.2337ZM38.2337 13.7281C38.2337 13.414 38.1404 13.107 37.9656 12.8459C37.7908 12.5848 37.5424 12.3813 37.2518 12.2611C36.9611 12.141 36.6413 12.1095 36.3328 12.1708C36.0242 12.232 35.7408 12.3833 35.5184 12.6053C35.2959 12.8274 35.1444 13.1103 35.083 13.4183C35.0217 13.7263 35.0532 14.0456 35.1735 14.3357C35.2939 14.6258 35.4978 14.8738 35.7594 15.0483C36.021 15.2227 36.3285 15.3159 36.6431 15.3159C37.0643 15.3138 37.4678 15.1459 37.7657 14.8486C38.0636 14.5513 38.2319 14.1486 38.2341 13.7281H38.2337ZM41.4157 42.3137C41.4157 41.9995 41.3225 41.6924 41.1477 41.4311C40.9729 41.1699 40.7244 40.9663 40.4337 40.846C40.143 40.7258 39.823 40.6943 39.5144 40.7555C39.2057 40.8168 38.9222 40.9681 38.6996 41.1902C38.4771 41.4124 38.3256 41.6954 38.2642 42.0035C38.2028 42.3116 38.2344 42.631 38.3548 42.9212C38.4753 43.2114 38.6793 43.4595 38.941 43.634C39.2027 43.8084 39.5104 43.9015 39.8251 43.9015C40.2463 43.8994 40.6498 43.7315 40.9477 43.4342C41.2456 43.1369 41.4139 42.7342 41.4161 42.3137H41.4157ZM41.4157 20.0804C41.4157 19.7663 41.3225 19.4591 41.1477 19.1979C40.9729 18.9366 40.7244 18.733 40.4337 18.6128C40.143 18.4925 39.823 18.461 39.5144 18.5223C39.2057 18.5836 38.9222 18.7348 38.6996 18.957C38.4771 19.1791 38.3256 19.4621 38.2642 19.7703C38.2028 20.0784 38.2344 20.3977 38.3548 20.688C38.4753 20.9782 38.6793 21.2262 38.941 21.4007C39.2027 21.5752 39.5104 21.6683 39.8251 21.6682C40.2463 21.6662 40.6498 21.4982 40.9477 21.2009C41.2456 20.9036 41.4139 20.5009 41.4161 20.0804H41.4157ZM41.4157 16.9042C41.4157 16.5901 41.3225 16.283 41.1477 16.0217C40.9729 15.7605 40.7244 15.5569 40.4337 15.4366C40.143 15.3163 39.823 15.2848 39.5144 15.3461C39.2057 15.4074 38.9222 15.5587 38.6996 15.7808C38.4771 16.0029 38.3256 16.286 38.2642 16.5941C38.2028 16.9022 38.2344 17.2216 38.3548 17.5118C38.4753 17.802 38.6793 18.0501 38.941 18.2245C39.2027 18.399 39.5104 18.4921 39.8251 18.492C40.2463 18.49 40.6498 18.3221 40.9477 18.0247C41.2456 17.7274 41.4139 17.3248 41.4161 16.9042H41.4157ZM41.4157 13.7281C41.4157 13.4139 41.3225 13.1068 41.1477 12.8456C40.9729 12.5843 40.7244 12.3807 40.4337 12.2604C40.143 12.1402 39.823 12.1087 39.5144 12.1699C39.2057 12.2312 38.9222 12.3825 38.6996 12.6046C38.4771 12.8268 38.3256 13.1098 38.2642 13.4179C38.2028 13.726 38.2344 14.0454 38.3548 14.3356C38.4753 14.6259 38.6793 14.8739 38.941 15.0484C39.2027 15.2229 39.5104 15.3159 39.8251 15.3159C40.2463 15.3138 40.6498 15.1459 40.9477 14.8486C41.2456 14.5513 41.4139 14.1486 41.4161 13.7281H41.4157ZM41.4157 39.1375C41.4157 38.8233 41.3225 38.5162 41.1477 38.255C40.9729 37.9937 40.7244 37.7901 40.4337 37.6698C40.143 37.5496 39.823 37.5181 39.5144 37.5794C39.2057 37.6406 38.9222 37.7919 38.6996 38.014C38.4771 38.2362 38.3256 38.5192 38.2642 38.8273C38.2028 39.1355 38.2344 39.4548 38.3548 39.7451C38.4753 40.0353 38.6793 40.2833 38.941 40.4578C39.2027 40.6323 39.5104 40.7254 39.8251 40.7253C40.2463 40.7232 40.6498 40.5553 40.9477 40.258C41.2456 39.9607 41.4139 39.558 41.4161 39.1375H41.4157ZM44.5977 42.3137C44.5977 41.9995 44.5045 41.6925 44.3298 41.4312C44.155 41.17 43.9066 40.9664 43.6159 40.8461C43.3252 40.7258 43.0053 40.6943 42.6967 40.7555C42.388 40.8167 42.1045 40.9679 41.8819 41.1899C41.6594 41.412 41.5078 41.6949 41.4463 42.003C41.3848 42.3111 41.4163 42.6304 41.5366 42.9207C41.657 43.2109 41.8608 43.459 42.1224 43.6336C42.384 43.8082 42.6916 43.9014 43.0063 43.9015C43.4276 43.8995 43.8312 43.7316 44.1292 43.4343C44.4273 43.137 44.5958 42.7343 44.5981 42.3137H44.5977ZM44.5977 13.7281C44.5977 13.4139 44.5045 13.1069 44.3298 12.8456C44.155 12.5844 43.9066 12.3808 43.6159 12.2605C43.3252 12.1402 43.0053 12.1087 42.6967 12.1699C42.388 12.2311 42.1045 12.3823 41.8819 12.6043C41.6594 12.8264 41.5078 13.1093 41.4463 13.4174C41.3848 13.7255 41.4163 14.0448 41.5366 14.3351C41.657 14.6253 41.8608 14.8734 42.1224 15.048C42.384 15.2226 42.6916 15.3158 43.0063 15.3159C43.4276 15.3139 43.8312 15.146 44.1292 14.8487C44.4273 14.5514 44.5958 14.1487 44.5981 13.7281H44.5977ZM41.4157 35.9613C41.4157 35.6472 41.3225 35.3401 41.1477 35.0788C40.9729 34.8176 40.7244 34.6139 40.4337 34.4937C40.143 34.3734 39.823 34.3419 39.5144 34.4032C39.2057 34.4645 38.9222 34.6157 38.6996 34.8379C38.4771 35.06 38.3256 35.3431 38.2642 35.6512C38.2028 35.9593 38.2344 36.2787 38.3548 36.5689C38.4753 36.8591 38.6793 37.1071 38.941 37.2816C39.2027 37.4561 39.5104 37.5492 39.8251 37.5491C40.2463 37.5471 40.6498 37.3792 40.9477 37.0818C41.2456 36.7845 41.4139 36.3818 41.4161 35.9613H41.4157ZM41.4157 32.7852C41.4157 32.471 41.3225 32.1639 41.1477 31.9026C40.9729 31.6414 40.7244 31.4378 40.4337 31.3175C40.143 31.1973 39.823 31.1658 39.5144 31.227C39.2057 31.2883 38.9222 31.4396 38.6996 31.6617C38.4771 31.8839 38.3256 32.1669 38.2642 32.475C38.2028 32.7831 38.2344 33.1025 38.3548 33.3927C38.4753 33.6829 38.6793 33.931 38.941 34.1055C39.2027 34.2799 39.5104 34.373 39.8251 34.373C40.2463 34.3709 40.6498 34.203 40.9477 33.9057C41.2456 33.6083 41.4139 33.2057 41.4161 32.7852H41.4157ZM41.4157 29.609C41.4157 29.2948 41.3225 28.9877 41.1477 28.7265C40.9729 28.4652 40.7244 28.2616 40.4337 28.1413C40.143 28.0211 39.823 27.9896 39.5144 28.0509C39.2057 28.1121 38.9222 28.2634 38.6996 28.4855C38.4771 28.7077 38.3256 28.9907 38.2642 29.2988C38.2028 29.607 38.2344 29.9263 38.3548 30.2165C38.4753 30.5068 38.6793 30.7548 38.941 30.9293C39.2027 31.1038 39.5104 31.1969 39.8251 31.1968C40.2463 31.1947 40.6498 31.0268 40.9477 30.7295C41.2456 30.4322 41.4139 30.0295 41.4161 29.609H41.4157ZM41.4157 26.4328C41.4157 26.1187 41.3225 25.8115 41.1477 25.5503C40.9729 25.2891 40.7244 25.0854 40.4337 24.9652C40.143 24.8449 39.823 24.8134 39.5144 24.8747C39.2057 24.936 38.9222 25.0872 38.6996 25.3094C38.4771 25.5315 38.3256 25.8145 38.2642 26.1227C38.2028 26.4308 38.2344 26.7502 38.3548 27.0404C38.4753 27.3306 38.6793 27.5786 38.941 27.7531C39.2027 27.9276 39.5104 28.0207 39.8251 28.0206C40.2463 28.0186 40.6498 27.8506 40.9477 27.5533C41.2456 27.256 41.4139 26.8533 41.4161 26.4328H41.4157ZM41.4157 23.2567C41.4157 22.9425 41.3225 22.6354 41.1477 22.3741C40.9729 22.1129 40.7244 21.9093 40.4337 21.789C40.143 21.6688 39.823 21.6373 39.5144 21.6985C39.2057 21.7598 38.9222 21.9111 38.6996 22.1332C38.4771 22.3554 38.3256 22.6384 38.2642 22.9465C38.2028 23.2546 38.2344 23.574 38.3548 23.8642C38.4753 24.1544 38.6793 24.4025 38.941 24.577C39.2027 24.7514 39.5104 24.8445 39.8251 24.8445C40.2463 24.8424 40.6498 24.6745 40.9477 24.3772C41.2456 24.0798 41.4139 23.6772 41.4161 23.2567H41.4157ZM52.9114 35.9613C52.9115 35.6472 52.8182 35.3401 52.6434 35.0788C52.4686 34.8176 52.2201 34.6139 51.9294 34.4937C51.6387 34.3734 51.3187 34.3419 51.0101 34.4032C50.7014 34.4645 50.4179 34.6157 50.1954 34.8379C49.9728 35.06 49.8213 35.3431 49.7599 35.6512C49.6985 35.9593 49.7301 36.2787 49.8506 36.5689C49.971 36.8591 50.175 37.1071 50.4367 37.2816C50.6984 37.4561 51.0061 37.5492 51.3208 37.5491C51.742 37.5471 52.1455 37.3792 52.4434 37.0818C52.7413 36.7845 52.9096 36.3818 52.9118 35.9613H52.9114ZM52.9114 32.7852C52.9115 32.471 52.8182 32.1639 52.6434 31.9026C52.4686 31.6414 52.2201 31.4378 51.9294 31.3175C51.6387 31.1973 51.3187 31.1658 51.0101 31.227C50.7014 31.2883 50.4179 31.4396 50.1954 31.6617C49.9728 31.8839 49.8213 32.1669 49.7599 32.475C49.6985 32.7831 49.7301 33.1025 49.8506 33.3927C49.971 33.6829 50.175 33.931 50.4367 34.1055C50.6984 34.2799 51.0061 34.373 51.3208 34.373C51.742 34.3709 52.1455 34.203 52.4434 33.9057C52.7413 33.6083 52.9096 33.2057 52.9118 32.7852H52.9114ZM52.9114 29.609C52.9115 29.2948 52.8182 28.9877 52.6434 28.7265C52.4686 28.4652 52.2201 28.2616 51.9294 28.1413C51.6387 28.0211 51.3187 27.9896 51.0101 28.0509C50.7014 28.1121 50.4179 28.2634 50.1954 28.4855C49.9728 28.7077 49.8213 28.9907 49.7599 29.2988C49.6985 29.607 49.7301 29.9263 49.8506 30.2165C49.971 30.5068 50.175 30.7548 50.4367 30.9293C50.6984 31.1038 51.0061 31.1969 51.3208 31.1968C51.742 31.1947 52.1455 31.0268 52.4434 30.7295C52.7413 30.4322 52.9096 30.0295 52.9118 29.609H52.9114ZM52.9114 26.4328C52.9115 26.1187 52.8182 25.8115 52.6434 25.5503C52.4686 25.2891 52.2201 25.0854 51.9294 24.9652C51.6387 24.8449 51.3187 24.8134 51.0101 24.8747C50.7014 24.936 50.4179 25.0872 50.1954 25.3094C49.9728 25.5315 49.8213 25.8145 49.7599 26.1227C49.6985 26.4308 49.7301 26.7502 49.8506 27.0404C49.971 27.3306 50.175 27.5786 50.4367 27.7531C50.6984 27.9276 51.0061 28.0207 51.3208 28.0206C51.742 28.0186 52.1455 27.8506 52.4434 27.5533C52.7413 27.256 52.9096 26.8533 52.9118 26.4328H52.9114ZM52.9114 23.2567C52.9115 22.9425 52.8182 22.6354 52.6434 22.3741C52.4686 22.1129 52.2201 21.9093 51.9294 21.789C51.6387 21.6688 51.3187 21.6373 51.0101 21.6985C50.7014 21.7598 50.4179 21.9111 50.1954 22.1332C49.9728 22.3554 49.8213 22.6384 49.7599 22.9465C49.6985 23.2546 49.7301 23.574 49.8506 23.8642C49.971 24.1544 50.175 24.4025 50.4367 24.577C50.6984 24.7514 51.0061 24.8445 51.3208 24.8445C51.742 24.8424 52.1455 24.6745 52.4434 24.3772C52.7413 24.0798 52.9096 23.6772 52.9118 23.2567H52.9114ZM52.9114 20.0804C52.9115 19.7663 52.8182 19.4591 52.6434 19.1979C52.4686 18.9366 52.2201 18.733 51.9294 18.6128C51.6387 18.4925 51.3187 18.461 51.0101 18.5223C50.7014 18.5836 50.4179 18.7348 50.1954 18.957C49.9728 19.1791 49.8213 19.4621 49.7599 19.7703C49.6985 20.0784 49.7301 20.3977 49.8506 20.688C49.971 20.9782 50.175 21.2262 50.4367 21.4007C50.6984 21.5752 51.0061 21.6683 51.3208 21.6682C51.742 21.6662 52.1455 21.4982 52.4434 21.2009C52.7413 20.9036 52.9096 20.5009 52.9118 20.0804H52.9114ZM52.9114 16.9042C52.9115 16.5901 52.8182 16.283 52.6434 16.0217C52.4686 15.7605 52.2201 15.5569 51.9294 15.4366C51.6387 15.3163 51.3187 15.2848 51.0101 15.3461C50.7014 15.4074 50.4179 15.5587 50.1954 15.7808C49.9728 16.0029 49.8213 16.286 49.7599 16.5941C49.6985 16.9022 49.7301 17.2216 49.8506 17.5118C49.971 17.802 50.175 18.0501 50.4367 18.2245C50.6984 18.399 51.0061 18.4921 51.3208 18.492C51.742 18.49 52.1455 18.3221 52.4434 18.0247C52.7413 17.7274 52.9096 17.3248 52.9118 16.9042H52.9114ZM52.9114 39.1375C52.9115 38.8233 52.8182 38.5162 52.6434 38.255C52.4686 37.9937 52.2201 37.7901 51.9294 37.6698C51.6387 37.5496 51.3187 37.5181 51.0101 37.5794C50.7014 37.6406 50.4179 37.7919 50.1954 38.014C49.9728 38.2362 49.8213 38.5192 49.7599 38.8273C49.6985 39.1355 49.7301 39.4548 49.8506 39.7451C49.971 40.0353 50.175 40.2833 50.4367 40.4578C50.6984 40.6323 51.0061 40.7254 51.3208 40.7253C51.742 40.7232 52.1455 40.5553 52.4434 40.258C52.7413 39.9607 52.9096 39.558 52.9118 39.1375H52.9114ZM56.0934 42.3137C56.0935 41.9995 56.0002 41.6925 55.8255 41.4312C55.6507 41.17 55.4023 40.9664 55.1116 40.8461C54.8209 40.7258 54.501 40.6943 54.1924 40.7555C53.8837 40.8167 53.6002 40.9679 53.3777 41.1899C53.1551 41.412 53.0035 41.6949 52.942 42.003C52.8806 42.3111 52.912 42.6304 53.0323 42.9207C53.1527 43.2109 53.3565 43.459 53.6181 43.6336C53.8797 43.8082 54.1873 43.9014 54.502 43.9015C54.9234 43.8996 55.327 43.7318 55.6251 43.4345C55.9232 43.1371 56.0916 42.7343 56.0938 42.3137H56.0934ZM56.0934 13.7281C56.0935 13.4139 56.0002 13.1069 55.8255 12.8456C55.6507 12.5844 55.4023 12.3808 55.1116 12.2605C54.8209 12.1402 54.501 12.1087 54.1924 12.1699C53.8837 12.2311 53.6002 12.3823 53.3777 12.6043C53.1551 12.8264 53.0035 13.1093 52.942 13.4174C52.8806 13.7255 52.912 14.0448 53.0323 14.3351C53.1527 14.6253 53.3565 14.8734 53.6181 15.048C53.8797 15.2226 54.1873 15.3158 54.502 15.3159C54.9234 15.314 55.327 15.1462 55.6251 14.8489C55.9232 14.5515 56.0916 14.1487 56.0938 13.7281H56.0934ZM59.2754 42.3137C59.2755 41.9995 59.1822 41.6925 59.0075 41.4312C58.8327 41.17 58.5843 40.9664 58.2936 40.8461C58.0029 40.7258 57.683 40.6943 57.3744 40.7555C57.0658 40.8167 56.7822 40.9679 56.5597 41.1899C56.3371 41.412 56.1855 41.6949 56.124 42.003C56.0626 42.3111 56.094 42.6304 56.2143 42.9207C56.3347 43.2109 56.5385 43.459 56.8001 43.6336C57.0617 43.8082 57.3693 43.9014 57.684 43.9015C58.1053 43.8995 58.5089 43.7316 58.8069 43.4343C59.105 43.137 59.2735 42.7343 59.2758 42.3137H59.2754ZM59.2754 13.7281C59.2755 13.4139 59.1822 13.1069 59.0075 12.8456C58.8327 12.5844 58.5843 12.3808 58.2936 12.2605C58.0029 12.1402 57.683 12.1087 57.3744 12.1699C57.0658 12.2311 56.7822 12.3823 56.5597 12.6043C56.3371 12.8264 56.1855 13.1093 56.124 13.4174C56.0626 13.7255 56.094 14.0448 56.2143 14.3351C56.3347 14.6253 56.5385 14.8734 56.8001 15.048C57.0617 15.2226 57.3693 15.3158 57.684 15.3159C58.1053 15.3139 58.5089 15.146 58.8069 14.8487C59.105 14.5514 59.2735 14.1487 59.2758 13.7281H59.2754ZM62.4566 42.3137C62.4566 41.9996 62.3633 41.6926 62.1885 41.4315C62.0137 41.1704 61.7653 40.9669 61.4747 40.8467C61.184 40.7266 60.8642 40.6951 60.5557 40.7564C60.2471 40.8176 59.9637 40.9689 59.7413 41.1909C59.5188 41.413 59.3673 41.6959 59.3059 42.0039C59.2446 42.3119 59.2761 42.6311 59.3965 42.9213C59.5168 43.2114 59.7207 43.4594 59.9823 43.6339C60.2439 43.8083 60.5514 43.9015 60.866 43.9015C61.2872 43.8994 61.6907 43.7315 61.9886 43.4342C62.2865 43.1369 62.4548 42.7342 62.457 42.3137H62.4566ZM62.4566 13.7281C62.4566 13.414 62.3633 13.107 62.1885 12.8459C62.0137 12.5848 61.7653 12.3813 61.4747 12.2611C61.184 12.141 60.8642 12.1095 60.5557 12.1708C60.2471 12.232 59.9637 12.3833 59.7413 12.6053C59.5188 12.8274 59.3673 13.1103 59.3059 13.4183C59.2446 13.7263 59.2761 14.0456 59.3965 14.3357C59.5168 14.6258 59.7207 14.8738 59.9823 15.0483C60.2439 15.2227 60.5514 15.3159 60.866 15.3159C61.2872 15.3138 61.6907 15.1459 61.9886 14.8486C62.2865 14.5513 62.4548 14.1486 62.457 13.7281H62.4566ZM65.6386 42.3137C65.6386 41.9995 65.5454 41.6924 65.3706 41.4311C65.1958 41.1699 64.9473 40.9663 64.6566 40.846C64.3659 40.7258 64.0459 40.6943 63.7373 40.7555C63.4286 40.8168 63.1451 40.9681 62.9226 41.1902C62.7 41.4124 62.5485 41.6954 62.4871 42.0035C62.4257 42.3116 62.4573 42.631 62.5778 42.9212C62.6982 43.2114 62.9022 43.4595 63.1639 43.634C63.4256 43.8084 63.7333 43.9015 64.048 43.9015C64.4692 43.8994 64.8727 43.7315 65.1706 43.4342C65.4685 43.1369 65.6368 42.7342 65.639 42.3137H65.6386ZM65.6386 13.7281C65.6386 13.4139 65.5454 13.1068 65.3706 12.8456C65.1958 12.5843 64.9473 12.3807 64.6566 12.2604C64.3659 12.1402 64.0459 12.1087 63.7373 12.1699C63.4286 12.2312 63.1451 12.3825 62.9226 12.6046C62.7 12.8268 62.5485 13.1098 62.4871 13.4179C62.4257 13.726 62.4573 14.0454 62.5778 14.3356C62.6982 14.6259 62.9022 14.8739 63.1639 15.0484C63.4256 15.2229 63.7333 15.3159 64.048 15.3159C64.4692 15.3138 64.8727 15.1459 65.1706 14.8486C65.4685 14.5513 65.6368 14.1486 65.639 13.7281H65.6386ZM68.8206 42.3137C68.8207 41.9995 68.7274 41.6925 68.5527 41.4312C68.3779 41.17 68.1295 40.9664 67.8388 40.8461C67.5481 40.7258 67.2282 40.6943 66.9196 40.7555C66.6109 40.8167 66.3274 40.9679 66.1048 41.1899C65.8823 41.412 65.7307 41.6949 65.6692 42.003C65.6078 42.3111 65.6392 42.6304 65.7595 42.9207C65.8799 43.2109 66.0837 43.459 66.3453 43.6336C66.6069 43.8082 66.9145 43.9014 67.2292 43.9015C67.6505 43.8995 68.0541 43.7316 68.3521 43.4343C68.6502 43.137 68.8187 42.7343 68.821 42.3137H68.8206ZM68.8206 16.9042C68.8207 16.5901 68.7274 16.283 68.5527 16.0218C68.3779 15.7606 68.1295 15.557 67.8388 15.4367C67.5481 15.3164 67.2282 15.2849 66.9196 15.3461C66.6109 15.4073 66.3274 15.5584 66.1048 15.7805C65.8823 16.0026 65.7307 16.2855 65.6692 16.5936C65.6078 16.9016 65.6392 17.221 65.7595 17.5112C65.8799 17.8015 66.0837 18.0496 66.3453 18.2241C66.6069 18.3987 66.9145 18.492 67.2292 18.492C67.6505 18.4901 68.0541 18.3222 68.3521 18.0249C68.6502 17.7276 68.8187 17.3248 68.821 16.9042H68.8206ZM77.2376 13.7281C77.2377 13.4139 77.1444 13.1069 76.9697 12.8456C76.7949 12.5844 76.5465 12.3808 76.2558 12.2605C75.9651 12.1402 75.6452 12.1087 75.3366 12.1699C75.028 12.2311 74.7444 12.3823 74.5219 12.6043C74.2993 12.8264 74.1477 13.1093 74.0862 13.4174C74.0248 13.7255 74.0562 14.0448 74.1765 14.3351C74.2969 14.6253 74.5007 14.8734 74.7623 15.048C75.0239 15.2226 75.3315 15.3158 75.6462 15.3159C76.0675 15.3139 76.4711 15.146 76.7691 14.8487C77.0672 14.5514 77.2357 14.1487 77.238 13.7281H77.2376ZM80.4188 42.3137C80.4188 41.9996 80.3255 41.6926 80.1507 41.4315C79.9759 41.1704 79.7275 40.9669 79.4369 40.8467C79.1462 40.7266 78.8264 40.6951 78.5179 40.7564C78.2093 40.8176 77.9259 40.9689 77.7035 41.1909C77.481 41.413 77.3295 41.6959 77.2682 42.0039C77.2068 42.3119 77.2383 42.6311 77.3587 42.9213C77.479 43.2114 77.6829 43.4594 77.9445 43.6339C78.2061 43.8083 78.5136 43.9015 78.8282 43.9015C79.2494 43.8994 79.6529 43.7315 79.9508 43.4342C80.2487 43.1369 80.417 42.7342 80.4192 42.3137H80.4188ZM80.4188 20.0804C80.4188 19.7664 80.3255 19.4594 80.1507 19.1983C79.9759 18.9372 79.7275 18.7336 79.4369 18.6135C79.1462 18.4933 78.8264 18.4618 78.5179 18.5231C78.2093 18.5844 77.9259 18.7356 77.7035 18.9577C77.481 19.1797 77.3295 19.4626 77.2682 19.7706C77.2068 20.0786 77.2383 20.3979 77.3587 20.688C77.479 20.9782 77.6829 21.2261 77.9445 21.4006C78.2061 21.5751 78.5136 21.6682 78.8282 21.6682C79.2494 21.6662 79.6529 21.4982 79.9508 21.2009C80.2487 20.9036 80.417 20.5009 80.4192 20.0804H80.4188ZM80.4188 16.9042C80.4188 16.5902 80.3255 16.2832 80.1507 16.0221C79.9759 15.761 79.7275 15.5575 79.4369 15.4373C79.1462 15.3171 78.8264 15.2857 78.5179 15.3469C78.2093 15.4082 77.9259 15.5594 77.7035 15.7815C77.481 16.0035 77.3295 16.2865 77.2682 16.5945C77.2068 16.9025 77.2383 17.2217 77.3587 17.5119C77.479 17.802 77.6829 18.05 77.9445 18.2244C78.2061 18.3989 78.5136 18.492 78.8282 18.492C79.2494 18.49 79.6529 18.3221 79.9508 18.0247C80.2487 17.7274 80.417 17.3248 80.4192 16.9042H80.4188ZM80.4188 13.7281C80.4188 13.414 80.3255 13.107 80.1507 12.8459C79.9759 12.5848 79.7275 12.3813 79.4369 12.2611C79.1462 12.141 78.8264 12.1095 78.5179 12.1708C78.2093 12.232 77.9259 12.3833 77.7035 12.6053C77.481 12.8274 77.3295 13.1103 77.2682 13.4183C77.2068 13.7263 77.2383 14.0456 77.3587 14.3357C77.479 14.6258 77.6829 14.8738 77.9445 15.0483C78.2061 15.2227 78.5136 15.3159 78.8282 15.3159C79.2494 15.3138 79.6529 15.1459 79.9508 14.8486C80.2487 14.5513 80.417 14.1486 80.4192 13.7281H80.4188ZM80.4188 39.1375C80.4188 38.8235 80.3255 38.5165 80.1507 38.2554C79.9759 37.9942 79.7275 37.7907 79.4369 37.6706C79.1462 37.5504 78.8264 37.5189 78.5179 37.5802C78.2093 37.6415 77.9259 37.7927 77.7035 38.0147C77.481 38.2368 77.3295 38.5197 77.2682 38.8277C77.2068 39.1357 77.2383 39.455 77.3587 39.7451C77.479 40.0352 77.6829 40.2832 77.9445 40.4577C78.2061 40.6322 78.5136 40.7253 78.8282 40.7253C79.2494 40.7232 79.6529 40.5553 79.9508 40.258C80.2487 39.9607 80.417 39.558 80.4192 39.1375H80.4188ZM83.6008 13.7281C83.6009 13.4139 83.5076 13.1068 83.3328 12.8456C83.158 12.5843 82.9095 12.3807 82.6188 12.2604C82.3281 12.1402 82.0081 12.1087 81.6995 12.1699C81.3908 12.2312 81.1073 12.3825 80.8848 12.6046C80.6622 12.8268 80.5107 13.1098 80.4493 13.4179C80.3879 13.726 80.4195 14.0454 80.54 14.3356C80.6604 14.6259 80.8644 14.8739 81.1261 15.0484C81.3878 15.2229 81.6955 15.3159 82.0102 15.3159C82.4314 15.3138 82.8349 15.1459 83.1328 14.8486C83.4307 14.5513 83.599 14.1486 83.6012 13.7281H83.6008ZM80.4188 35.9613C80.4188 35.6473 80.3255 35.3403 80.1507 35.0792C79.9759 34.8181 79.7275 34.6146 79.4369 34.4944C79.1462 34.3742 78.8264 34.3428 78.5179 34.404C78.2093 34.4653 77.9259 34.6165 77.7035 34.8386C77.481 35.0606 77.3295 35.3436 77.2682 35.6516C77.2068 35.9596 77.2383 36.2788 77.3587 36.5689C77.479 36.8591 77.6829 37.1071 77.9445 37.2815C78.2061 37.456 78.5136 37.5491 78.8282 37.5491C79.2494 37.5471 79.6529 37.3792 79.9508 37.0818C80.2487 36.7845 80.417 36.3818 80.4192 35.9613H80.4188ZM80.4188 32.7852C80.4188 32.4711 80.3255 32.1641 80.1507 31.903C79.9759 31.6419 79.7275 31.4384 79.4369 31.3182C79.1462 31.198 78.8264 31.1666 78.5179 31.2279C78.2093 31.2891 77.9259 31.4404 77.7035 31.6624C77.481 31.8845 77.3295 32.1674 77.2682 32.4754C77.2068 32.7834 77.2383 33.1026 77.3587 33.3928C77.479 33.6829 77.6829 33.9309 77.9445 34.1054C78.2061 34.2798 78.5136 34.373 78.8282 34.373C79.2494 34.3709 79.6529 34.203 79.9508 33.9057C80.2487 33.6083 80.417 33.2057 80.4192 32.7852H80.4188ZM80.4188 29.609C80.4188 29.295 80.3255 28.988 80.1507 28.7269C79.9759 28.4657 79.7275 28.2622 79.4369 28.1421C79.1462 28.0219 78.8264 27.9904 78.5179 28.0517C78.2093 28.113 77.9259 28.2642 77.7035 28.4862C77.481 28.7083 77.3295 28.9912 77.2682 29.2992C77.2068 29.6072 77.2383 29.9265 77.3587 30.2166C77.479 30.5067 77.6829 30.7547 77.9445 30.9292C78.2061 31.1037 78.5136 31.1968 78.8282 31.1968C79.2494 31.1947 79.6529 31.0268 79.9508 30.7295C80.2487 30.4322 80.417 30.0295 80.4192 29.609H80.4188ZM80.4188 26.4328C80.4188 26.1188 80.3255 25.8118 80.1507 25.5507C79.9759 25.2896 79.7275 25.0861 79.4369 24.9659C79.1462 24.8457 78.8264 24.8143 78.5179 24.8755C78.2093 24.9368 77.9259 25.088 77.7035 25.3101C77.481 25.5321 77.3295 25.8151 77.2682 26.1231C77.2068 26.4311 77.2383 26.7503 77.3587 27.0404C77.479 27.3306 77.6829 27.5786 77.9445 27.753C78.2061 27.9275 78.5136 28.0206 78.8282 28.0206C79.2494 28.0186 79.6529 27.8506 79.9508 27.5533C80.2487 27.256 80.417 26.8533 80.4192 26.4328H80.4188ZM80.4188 23.2567C80.4188 22.9426 80.3255 22.6356 80.1507 22.3745C79.9759 22.1134 79.7275 21.9099 79.4369 21.7897C79.1462 21.6695 78.8264 21.6381 78.5179 21.6994C78.2093 21.7606 77.9259 21.9119 77.7035 22.1339C77.481 22.356 77.3295 22.6389 77.2682 22.9469C77.2068 23.2549 77.2383 23.5741 77.3587 23.8643C77.479 24.1544 77.6829 24.4024 77.9445 24.5769C78.2061 24.7513 78.5136 24.8445 78.8282 24.8445C79.2494 24.8424 79.6529 24.6745 79.9508 24.3772C80.2487 24.0798 80.417 23.6772 80.4192 23.2567H80.4188ZM86.7828 13.7281C86.7829 13.4139 86.6896 13.1069 86.5149 12.8456C86.3401 12.5844 86.0917 12.3808 85.801 12.2605C85.5103 12.1402 85.1904 12.1087 84.8818 12.1699C84.5732 12.2311 84.2896 12.3823 84.0671 12.6043C83.8445 12.8264 83.6929 13.1093 83.6314 13.4174C83.57 13.7255 83.6014 14.0448 83.7217 14.3351C83.8421 14.6253 84.0459 14.8734 84.3075 15.048C84.5691 15.2226 84.8767 15.3158 85.1914 15.3159C85.6127 15.3139 86.0163 15.146 86.3143 14.8487C86.6124 14.5514 86.7809 14.1487 86.7832 13.7281H86.7828ZM74.0556 13.7281C74.0557 13.4139 73.9624 13.1068 73.7876 12.8456C73.6128 12.5843 73.3644 12.3807 73.0736 12.2604C72.7829 12.1402 72.463 12.1087 72.1543 12.1699C71.8456 12.2312 71.5621 12.3825 71.3396 12.6046C71.1171 12.8268 70.9655 13.1098 70.9041 13.4179C70.8428 13.726 70.8743 14.0454 70.9948 14.3356C71.1152 14.6259 71.3192 14.8739 71.5809 15.0484C71.8426 15.2229 72.1503 15.3159 72.465 15.3159C72.8862 15.3138 73.2897 15.1459 73.5876 14.8486C73.8855 14.5513 74.0538 14.1486 74.056 13.7281H74.0556ZM94.07 35.9613C94.07 35.6473 93.9767 35.3403 93.8019 35.0792C93.6271 34.8181 93.3787 34.6146 93.0881 34.4944C92.7974 34.3742 92.4776 34.3428 92.1691 34.404C91.8605 34.4653 91.5771 34.6165 91.3547 34.8386C91.1322 35.0606 90.9807 35.3436 90.9194 35.6516C90.858 35.9596 90.8895 36.2788 91.0099 36.5689C91.1303 36.8591 91.3341 37.1071 91.5957 37.2815C91.8573 37.456 92.1648 37.5491 92.4794 37.5491C92.9006 37.5471 93.3041 37.3792 93.602 37.0818C93.8999 36.7845 94.0682 36.3818 94.0704 35.9613H94.07ZM94.07 32.7852C94.07 32.4711 93.9767 32.1641 93.8019 31.903C93.6271 31.6419 93.3787 31.4384 93.0881 31.3182C92.7974 31.198 92.4776 31.1666 92.1691 31.2279C91.8605 31.2891 91.5771 31.4404 91.3547 31.6624C91.1322 31.8845 90.9807 32.1674 90.9194 32.4754C90.858 32.7834 90.8895 33.1026 91.0099 33.3928C91.1303 33.6829 91.3341 33.9309 91.5957 34.1054C91.8573 34.2798 92.1648 34.373 92.4794 34.373C92.9006 34.3709 93.3041 34.203 93.602 33.9057C93.8999 33.6083 94.0682 33.2057 94.0704 32.7852H94.07ZM94.07 29.609C94.07 29.295 93.9767 28.988 93.8019 28.7269C93.6271 28.4657 93.3787 28.2622 93.0881 28.1421C92.7974 28.0219 92.4776 27.9904 92.1691 28.0517C91.8605 28.113 91.5771 28.2642 91.3547 28.4862C91.1322 28.7083 90.9807 28.9912 90.9194 29.2992C90.858 29.6072 90.8895 29.9265 91.0099 30.2166C91.1303 30.5067 91.3341 30.7547 91.5957 30.9292C91.8573 31.1037 92.1648 31.1968 92.4794 31.1968C92.9006 31.1947 93.3041 31.0268 93.602 30.7295C93.8999 30.4322 94.0682 30.0295 94.0704 29.609H94.07ZM94.07 26.4328C94.07 26.1188 93.9767 25.8118 93.8019 25.5507C93.6271 25.2896 93.3787 25.0861 93.0881 24.9659C92.7974 24.8457 92.4776 24.8143 92.1691 24.8755C91.8605 24.9368 91.5771 25.088 91.3547 25.3101C91.1322 25.5321 90.9807 25.8151 90.9194 26.1231C90.858 26.4311 90.8895 26.7503 91.0099 27.0404C91.1303 27.3306 91.3341 27.5786 91.5957 27.753C91.8573 27.9275 92.1648 28.0206 92.4794 28.0206C92.9006 28.0186 93.3041 27.8506 93.602 27.5533C93.8999 27.256 94.0682 26.8533 94.0704 26.4328H94.07ZM94.07 23.2567C94.07 22.9426 93.9767 22.6356 93.8019 22.3745C93.6271 22.1134 93.3787 21.9099 93.0881 21.7897C92.7974 21.6695 92.4776 21.6381 92.1691 21.6994C91.8605 21.7606 91.5771 21.9119 91.3547 22.1339C91.1322 22.356 90.9807 22.6389 90.9194 22.9469C90.858 23.2549 90.8895 23.5741 91.0099 23.8643C91.1303 24.1544 91.3341 24.4024 91.5957 24.5769C91.8573 24.7513 92.1648 24.8445 92.4794 24.8445C92.9006 24.8424 93.3041 24.6745 93.602 24.3772C93.8999 24.0798 94.0682 23.6772 94.0704 23.2567H94.07ZM94.07 20.0804C94.07 19.7664 93.9767 19.4594 93.8019 19.1983C93.6271 18.9372 93.3787 18.7336 93.0881 18.6135C92.7974 18.4933 92.4776 18.4618 92.1691 18.5231C91.8605 18.5844 91.5771 18.7356 91.3547 18.9577C91.1322 19.1797 90.9807 19.4626 90.9194 19.7706C90.858 20.0786 90.8895 20.3979 91.0099 20.688C91.1303 20.9782 91.3341 21.2261 91.5957 21.4006C91.8573 21.5751 92.1648 21.6682 92.4794 21.6682C92.9006 21.6662 93.3041 21.4982 93.602 21.2009C93.8999 20.9036 94.0682 20.5009 94.0704 20.0804H94.07ZM94.07 16.9042C94.07 16.5902 93.9767 16.2832 93.8019 16.0221C93.6271 15.761 93.3787 15.5575 93.0881 15.4373C92.7974 15.3171 92.4776 15.2857 92.1691 15.3469C91.8605 15.4082 91.5771 15.5594 91.3547 15.7815C91.1322 16.0035 90.9807 16.2865 90.9194 16.5945C90.858 16.9025 90.8895 17.2217 91.0099 17.5119C91.1303 17.802 91.3341 18.05 91.5957 18.2244C91.8573 18.3989 92.1648 18.492 92.4794 18.492C92.9006 18.49 93.3041 18.3221 93.602 18.0247C93.8999 17.7274 94.0682 17.3248 94.0704 16.9042H94.07ZM94.07 39.1375C94.07 38.8235 93.9767 38.5165 93.8019 38.2554C93.6271 37.9942 93.3787 37.7907 93.0881 37.6706C92.7974 37.5504 92.4776 37.5189 92.1691 37.5802C91.8605 37.6415 91.5771 37.7927 91.3547 38.0147C91.1322 38.2368 90.9807 38.5197 90.9194 38.8277C90.858 39.1357 90.8895 39.455 91.0099 39.7451C91.1303 40.0352 91.3341 40.2832 91.5957 40.4577C91.8573 40.6322 92.1648 40.7253 92.4794 40.7253C92.9006 40.7232 93.3041 40.5553 93.602 40.258C93.8999 39.9607 94.0682 39.558 94.0704 39.1375H94.07ZM97.252 42.3137C97.2521 41.9995 97.1588 41.6924 96.984 41.4311C96.8092 41.1699 96.5607 40.9663 96.27 40.846C95.9793 40.7258 95.6594 40.6943 95.3507 40.7555C95.042 40.8168 94.7585 40.9681 94.536 41.1902C94.3134 41.4124 94.1619 41.6954 94.1005 42.0035C94.0392 42.3116 94.0707 42.631 94.1912 42.9212C94.3116 43.2114 94.5156 43.4595 94.7773 43.634C95.039 43.8084 95.3467 43.9015 95.6614 43.9015C96.0826 43.8994 96.4861 43.7315 96.784 43.4342C97.0819 43.1369 97.2502 42.7342 97.2524 42.3137H97.252ZM97.252 13.7281C97.2521 13.4139 97.1588 13.1068 96.984 12.8456C96.8092 12.5843 96.5607 12.3807 96.27 12.2604C95.9793 12.1402 95.6594 12.1087 95.3507 12.1699C95.042 12.2312 94.7585 12.3825 94.536 12.6046C94.3134 12.8268 94.1619 13.1098 94.1005 13.4179C94.0392 13.726 94.0707 14.0454 94.1912 14.3356C94.3116 14.6259 94.5156 14.8739 94.7773 15.0484C95.039 15.2229 95.3467 15.3159 95.6614 15.3159C96.0826 15.3138 96.4861 15.1459 96.784 14.8486C97.0819 14.5513 97.2502 14.1486 97.2524 13.7281H97.252ZM100.434 42.3137C100.434 41.9995 100.341 41.6924 100.166 41.4311C99.9912 41.1699 99.7428 40.9663 99.452 40.846C99.1613 40.7258 98.8414 40.6943 98.5327 40.7555C98.224 40.8168 97.9405 40.9681 97.718 41.1902C97.4954 41.4124 97.3439 41.6954 97.2825 42.0035C97.2212 42.3116 97.2527 42.631 97.3732 42.9212C97.4936 43.2114 97.6976 43.4595 97.9593 43.634C98.221 43.8084 98.5287 43.9015 98.8434 43.9015C99.2646 43.8994 99.6681 43.7315 99.966 43.4342C100.264 43.1369 100.432 42.7342 100.434 42.3137H100.434ZM100.434 13.7281C100.434 13.4139 100.341 13.1068 100.166 12.8456C99.9912 12.5843 99.7428 12.3807 99.452 12.2604C99.1613 12.1402 98.8414 12.1087 98.5327 12.1699C98.224 12.2312 97.9405 12.3825 97.718 12.6046C97.4954 12.8268 97.3439 13.1098 97.2825 13.4179C97.2212 13.726 97.2527 14.0454 97.3732 14.3356C97.4936 14.6259 97.6976 14.8739 97.9593 15.0484C98.221 15.2229 98.5287 15.3159 98.8434 15.3159C99.2646 15.3138 99.6681 15.1459 99.966 14.8486C100.264 14.5513 100.432 14.1486 100.434 13.7281H100.434ZM103.616 42.3137C103.616 41.9995 103.523 41.6925 103.348 41.4312C103.173 41.17 102.925 40.9664 102.634 40.8461C102.344 40.7258 102.024 40.6943 101.715 40.7555C101.406 40.8167 101.123 40.9679 100.9 41.1899C100.678 41.412 100.526 41.6949 100.465 42.003C100.403 42.3111 100.435 42.6304 100.555 42.9207C100.675 43.2109 100.879 43.459 101.141 43.6336C101.402 43.8082 101.71 43.9014 102.025 43.9015C102.446 43.8995 102.849 43.7316 103.148 43.4343C103.446 43.137 103.614 42.7343 103.616 42.3137H103.616ZM103.616 13.7281C103.616 13.4139 103.523 13.1069 103.348 12.8456C103.173 12.5844 102.925 12.3808 102.634 12.2605C102.344 12.1402 102.024 12.1087 101.715 12.1699C101.406 12.2311 101.123 12.3823 100.9 12.6043C100.678 12.8264 100.526 13.1093 100.465 13.4174C100.403 13.7255 100.435 14.0448 100.555 14.3351C100.675 14.6253 100.879 14.8734 101.141 15.048C101.402 15.2226 101.71 15.3158 102.025 15.3159C102.446 15.3139 102.849 15.146 103.148 14.8487C103.446 14.5514 103.614 14.1487 103.616 13.7281H103.616ZM106.797 42.3137C106.797 41.9996 106.704 41.6926 106.529 41.4315C106.354 41.1704 106.106 40.9669 105.815 40.8467C105.525 40.7266 105.205 40.6951 104.896 40.7564C104.588 40.8176 104.304 40.9689 104.082 41.1909C103.859 41.413 103.708 41.6959 103.647 42.0039C103.585 42.3119 103.617 42.6311 103.737 42.9213C103.857 43.2114 104.061 43.4594 104.323 43.6339C104.584 43.8083 104.892 43.9015 105.207 43.9015C105.628 43.8994 106.031 43.7315 106.329 43.4342C106.627 43.1369 106.795 42.7342 106.798 42.3137H106.797ZM106.797 13.7281C106.797 13.414 106.704 13.107 106.529 12.8459C106.354 12.5848 106.106 12.3813 105.815 12.2611C105.525 12.141 105.205 12.1095 104.896 12.1708C104.588 12.232 104.304 12.3833 104.082 12.6053C103.859 12.8274 103.708 13.1103 103.647 13.4183C103.585 13.7263 103.617 14.0456 103.737 14.3357C103.857 14.6258 104.061 14.8738 104.323 15.0483C104.584 15.2227 104.892 15.3159 105.207 15.3159C105.628 15.3138 106.031 15.1459 106.329 14.8486C106.627 14.5513 106.795 14.1486 106.798 13.7281H106.797ZM109.979 20.0804C109.979 19.7663 109.886 19.4591 109.711 19.1979C109.536 18.9366 109.288 18.733 108.997 18.6128C108.706 18.4925 108.387 18.461 108.078 18.5223C107.769 18.5836 107.486 18.7348 107.263 18.957C107.041 19.1791 106.889 19.4621 106.828 19.7703C106.766 20.0784 106.798 20.3977 106.918 20.688C107.039 20.9782 107.243 21.2262 107.505 21.4007C107.766 21.5752 108.074 21.6683 108.389 21.6682C108.81 21.6662 109.213 21.4982 109.511 21.2009C109.809 20.9036 109.977 20.5009 109.98 20.0804H109.979ZM109.979 16.9042C109.979 16.5901 109.886 16.283 109.711 16.0217C109.536 15.7605 109.288 15.5569 108.997 15.4366C108.706 15.3163 108.387 15.2848 108.078 15.3461C107.769 15.4074 107.486 15.5587 107.263 15.7808C107.041 16.0029 106.889 16.286 106.828 16.5941C106.766 16.9022 106.798 17.2216 106.918 17.5118C107.039 17.802 107.243 18.0501 107.505 18.2245C107.766 18.399 108.074 18.4921 108.389 18.492C108.81 18.49 109.213 18.3221 109.511 18.0247C109.809 17.7274 109.977 17.3248 109.98 16.9042H109.979ZM109.979 39.1375C109.979 38.8233 109.886 38.5162 109.711 38.255C109.536 37.9937 109.288 37.7901 108.997 37.6698C108.706 37.5496 108.387 37.5181 108.078 37.5794C107.769 37.6406 107.486 37.7919 107.263 38.014C107.041 38.2362 106.889 38.5192 106.828 38.8273C106.766 39.1355 106.798 39.4548 106.918 39.7451C107.039 40.0353 107.243 40.2833 107.505 40.4578C107.766 40.6323 108.074 40.7254 108.389 40.7253C108.81 40.7232 109.213 40.5553 109.511 40.258C109.809 39.9607 109.977 39.558 109.98 39.1375H109.979ZM109.979 35.9613C109.979 35.6472 109.886 35.3401 109.711 35.0788C109.536 34.8176 109.288 34.6139 108.997 34.4937C108.706 34.3734 108.387 34.3419 108.078 34.4032C107.769 34.4645 107.486 34.6157 107.263 34.8379C107.041 35.06 106.889 35.3431 106.828 35.6512C106.766 35.9593 106.798 36.2787 106.918 36.5689C107.039 36.8591 107.243 37.1071 107.505 37.2816C107.766 37.4561 108.074 37.5492 108.389 37.5491C108.81 37.5471 109.213 37.3792 109.511 37.0818C109.809 36.7845 109.977 36.3818 109.98 35.9613H109.979ZM109.979 32.7852C109.979 32.471 109.886 32.1639 109.711 31.9026C109.536 31.6414 109.288 31.4378 108.997 31.3175C108.706 31.1973 108.387 31.1658 108.078 31.227C107.769 31.2883 107.486 31.4396 107.263 31.6617C107.041 31.8839 106.889 32.1669 106.828 32.475C106.766 32.7831 106.798 33.1025 106.918 33.3927C107.039 33.6829 107.243 33.931 107.505 34.1055C107.766 34.2799 108.074 34.373 108.389 34.373C108.81 34.3709 109.213 34.203 109.511 33.9057C109.809 33.6083 109.977 33.2057 109.98 32.7852H109.979ZM109.979 29.609C109.979 29.2948 109.886 28.9877 109.711 28.7265C109.536 28.4652 109.288 28.2616 108.997 28.1413C108.706 28.0211 108.387 27.9896 108.078 28.0509C107.769 28.1121 107.486 28.2634 107.263 28.4855C107.041 28.7077 106.889 28.9907 106.828 29.2988C106.766 29.607 106.798 29.9263 106.918 30.2165C107.039 30.5068 107.243 30.7548 107.505 30.9293C107.766 31.1038 108.074 31.1969 108.389 31.1968C108.81 31.1947 109.213 31.0268 109.511 30.7295C109.809 30.4322 109.977 30.0295 109.98 29.609H109.979ZM109.979 26.4328C109.979 26.1187 109.886 25.8115 109.711 25.5503C109.536 25.2891 109.288 25.0854 108.997 24.9652C108.706 24.8449 108.387 24.8134 108.078 24.8747C107.769 24.936 107.486 25.0872 107.263 25.3094C107.041 25.5315 106.889 25.8145 106.828 26.1227C106.766 26.4308 106.798 26.7502 106.918 27.0404C107.039 27.3306 107.243 27.5786 107.505 27.7531C107.766 27.9276 108.074 28.0207 108.389 28.0206C108.81 28.0186 109.213 27.8506 109.511 27.5533C109.809 27.256 109.977 26.8533 109.98 26.4328H109.979ZM109.979 23.2567C109.979 22.9425 109.886 22.6354 109.711 22.3741C109.536 22.1129 109.288 21.9093 108.997 21.789C108.706 21.6688 108.387 21.6373 108.078 21.6985C107.769 21.7598 107.486 21.9111 107.263 22.1332C107.041 22.3554 106.889 22.6384 106.828 22.9465C106.766 23.2546 106.798 23.574 106.918 23.8642C107.039 24.1544 107.243 24.4025 107.505 24.577C107.766 24.7514 108.074 24.8445 108.389 24.8445C108.81 24.8424 109.213 24.6745 109.511 24.3772C109.809 24.0798 109.977 23.6772 109.98 23.2567H109.979Z" fill="#6AF812"/>
</g>
</g>
</g>
</g>
</g>
<defs>
<clipPath id="clip0_0_1">
<rect width="122" height="55" fill="white" transform="translate(0 0.5)"/>
</clipPath>
</defs>
</svg>
