<svg width="24" height="25" viewBox="0 0 24 25" fill="none" xmlns="http://www.w3.org/2000/svg">
<g id="share_24dp_FFFFFF_FILL0_wght400_GRAD0_opsz24 1">
<path id="Vector" d="M17 22.5C16.1667 22.5 15.4583 22.2083 14.875 21.625C14.2917 21.0417 14 20.3333 14 19.5C14 19.4 14.025 19.1667 14.075 18.8L7.05 14.7C6.78333 14.95 6.475 15.1458 6.125 15.2875C5.775 15.4292 5.4 15.5 5 15.5C4.16667 15.5 3.45833 15.2083 2.875 14.625C2.29167 14.0417 2 13.3333 2 12.5C2 11.6667 2.29167 10.9583 2.875 10.375C3.45833 9.79167 4.16667 9.5 5 9.5C5.4 9.5 5.775 9.57083 6.125 9.7125C6.475 9.85417 6.78333 10.05 7.05 10.3L14.075 6.2C14.0417 6.08333 14.0208 5.97083 14.0125 5.8625C14.0042 5.75417 14 5.63333 14 5.5C14 4.66667 14.2917 3.95833 14.875 3.375C15.4583 2.79167 16.1667 2.5 17 2.5C17.8333 2.5 18.5417 2.79167 19.125 3.375C19.7083 3.95833 20 4.66667 20 5.5C20 6.33333 19.7083 7.04167 19.125 7.625C18.5417 8.20833 17.8333 8.5 17 8.5C16.6 8.5 16.225 8.42917 15.875 8.2875C15.525 8.14583 15.2167 7.95 14.95 7.7L7.925 11.8C7.95833 11.9167 7.97917 12.0292 7.9875 12.1375C7.99583 12.2458 8 12.3667 8 12.5C8 12.6333 7.99583 12.7542 7.9875 12.8625C7.97917 12.9708 7.95833 13.0833 7.925 13.2L14.95 17.3C15.2167 17.05 15.525 16.8542 15.875 16.7125C16.225 16.5708 16.6 16.5 17 16.5C17.8333 16.5 18.5417 16.7917 19.125 17.375C19.7083 17.9583 20 18.6667 20 19.5C20 20.3333 19.7083 21.0417 19.125 21.625C18.5417 22.2083 17.8333 22.5 17 22.5ZM17 20.5C17.2833 20.5 17.5208 20.4042 17.7125 20.2125C17.9042 20.0208 18 19.7833 18 19.5C18 19.2167 17.9042 18.9792 17.7125 18.7875C17.5208 18.5958 17.2833 18.5 17 18.5C16.7167 18.5 16.4792 18.5958 16.2875 18.7875C16.0958 18.9792 16 19.2167 16 19.5C16 19.7833 16.0958 20.0208 16.2875 20.2125C16.4792 20.4042 16.7167 20.5 17 20.5ZM5 13.5C5.28333 13.5 5.52083 13.4042 5.7125 13.2125C5.90417 13.0208 6 12.7833 6 12.5C6 12.2167 5.90417 11.9792 5.7125 11.7875C5.52083 11.5958 5.28333 11.5 5 11.5C4.71667 11.5 4.47917 11.5958 4.2875 11.7875C4.09583 11.9792 4 12.2167 4 12.5C4 12.7833 4.09583 13.0208 4.2875 13.2125C4.47917 13.4042 4.71667 13.5 5 13.5ZM17 6.5C17.2833 6.5 17.5208 6.40417 17.7125 6.2125C17.9042 6.02083 18 5.78333 18 5.5C18 5.21667 17.9042 4.97917 17.7125 4.7875C17.5208 4.59583 17.2833 4.5 17 4.5C16.7167 4.5 16.4792 4.59583 16.2875 4.7875C16.0958 4.97917 16 5.21667 16 5.5C16 5.78333 16.0958 6.02083 16.2875 6.2125C16.4792 6.40417 16.7167 6.5 17 6.5Z" fill="#1E1E1E"/>
</g>
</svg>
